<svg width="61" height="61" viewBox="0 0 61 61" fill="none" xmlns="http://www.w3.org/2000/svg">
<g clip-path="url(#clip0_264_1160)">
<path d="M58.3834 10.187V15.187H50.8834V22.687H45.8834V15.187H38.3834V10.187H45.8834V2.68701H50.8834V10.187H58.3834ZM37.1334 27.687C39.2034 27.687 40.8834 26.007 40.8834 23.937C40.8834 21.867 39.2034 20.187 37.1334 20.187C35.0634 20.187 33.3834 21.867 33.3834 23.937C33.3834 26.007 35.0634 27.687 37.1334 27.687ZM45.8834 35.772L44.6009 34.347C42.6159 32.1345 39.1509 32.1345 37.1609 34.347L35.5234 36.172L23.3834 22.687L15.8834 31.0195V15.187H33.3834V10.187H15.8834C13.1209 10.187 10.8834 12.4245 10.8834 15.187V45.187C10.8834 47.9495 13.1209 50.187 15.8834 50.187H45.8834C48.6459 50.187 50.8834 47.9495 50.8834 45.187V27.687H45.8834V35.772Z" fill="white"/>
</g>
<defs>
<clipPath id="clip0_264_1160">
<rect width="60" height="60" fill="white" transform="translate(0.883423 0.187012)"/>
</clipPath>
</defs>
</svg>
