<svg width="33" height="32" viewBox="0 0 33 32" fill="none" xmlns="http://www.w3.org/2000/svg">
<path fill-rule="evenodd" clip-rule="evenodd" d="M13.3037 28H19.2296C23.3911 28 25.4717 28 26.9664 27.0195C27.6133 26.5949 28.1689 26.0495 28.6013 25.4143C29.6 23.9468 29.6 21.9039 29.6 17.8181C29.6 13.7325 29.6 11.6896 28.6013 10.2221C28.1689 9.58685 27.6133 9.04139 26.9664 8.61691C26.0059 7.98684 24.8036 7.76164 22.9627 7.68115C22.0841 7.68115 21.3279 7.02757 21.1556 6.18181C20.8971 4.91319 19.7625 4 18.4449 4H14.0884C12.7707 4 11.6362 4.91319 11.3778 6.18181C11.2055 7.02757 10.4491 7.68115 9.57068 7.68115C7.72979 7.76164 6.52742 7.98684 5.567 8.61691C4.91995 9.04139 4.36439 9.58685 3.93204 10.2221C2.93335 11.6896 2.93335 13.7325 2.93335 17.8181C2.93335 21.9039 2.93335 23.9468 3.93204 25.4143C4.36439 26.0495 4.91995 26.5949 5.567 27.0195C7.06167 28 9.14235 28 13.3037 28ZM16.2667 12.3636C13.1984 12.3636 10.7111 14.8057 10.7111 17.8181C10.7111 20.8307 13.1984 23.2727 16.2667 23.2727C19.3349 23.2727 21.8223 20.8307 21.8223 17.8181C21.8223 14.8057 19.3349 12.3636 16.2667 12.3636ZM16.2667 14.5455C14.4257 14.5455 12.9333 16.0107 12.9333 17.8181C12.9333 19.6256 14.4257 21.0909 16.2667 21.0909C18.1076 21.0909 19.6 19.6256 19.6 17.8181C19.6 16.0107 18.1076 14.5455 16.2667 14.5455ZM22.5629 13.4545C22.5629 12.8521 23.0604 12.3636 23.6741 12.3636H25.1556C25.7692 12.3636 26.2667 12.8521 26.2667 13.4545C26.2667 14.0571 25.7692 14.5455 25.1556 14.5455H23.6741C23.0604 14.5455 22.5629 14.0571 22.5629 13.4545Z" fill="white"/>
</svg>
