<svg width="32" height="32" viewBox="0 0 32 32" fill="none" xmlns="http://www.w3.org/2000/svg">
<path d="M27.6416 15.1511L16.8453 4.35484C16.7338 4.2424 16.6011 4.15316 16.4549 4.09226C16.3087 4.03136 16.1519 4 15.9936 4C15.8352 4 15.6784 4.03136 15.5323 4.09226C15.3861 4.15316 15.2534 4.2424 15.1419 4.35484L4.34558 15.1511C4.17913 15.3198 4.06637 15.534 4.02154 15.7667C3.97671 15.9995 4.00181 16.2402 4.09367 16.4587C4.18366 16.6778 4.33649 16.8653 4.53288 16.9976C4.72928 17.13 4.96046 17.2012 5.19729 17.2024H6.39688V25.9594C6.41875 26.5205 6.66201 27.0502 7.07343 27.4323C7.48485 27.8145 8.03092 28.0182 8.59213 27.9987H11.795C12.1132 27.9987 12.4183 27.8723 12.6433 27.6474C12.8682 27.4224 12.9946 27.1173 12.9946 26.7991V20.9212C12.9946 20.603 13.121 20.2979 13.346 20.0729C13.5709 19.8479 13.8761 19.7216 14.1942 19.7216H17.793C18.1111 19.7216 18.4162 19.8479 18.6412 20.0729C18.8662 20.2979 18.9926 20.603 18.9926 20.9212V26.7991C18.9926 27.1173 19.1189 27.4224 19.3439 27.6474C19.5689 27.8723 19.874 27.9987 20.1921 27.9987H23.395C23.9563 28.0182 24.5023 27.8145 24.9137 27.4323C25.3252 27.0502 25.5684 26.5205 25.5903 25.9594V17.2024H26.7899C27.0267 17.2012 27.2579 17.13 27.4543 16.9976C27.6507 16.8653 27.8035 16.6778 27.8935 16.4587C27.9854 16.2402 28.0105 15.9995 27.9656 15.7667C27.9208 15.534 27.808 15.3198 27.6416 15.1511Z" fill="white"/>
</svg>
