<svg width="32" height="32" viewBox="0 0 32 32" fill="none" xmlns="http://www.w3.org/2000/svg">
<path d="M22.7747 2.66667C26.336 2.708 29.3333 6.35467 29.3333 10.6667C29.3333 17.4747 20.7067 25.292 15.9987 28.7907C11.288 25.2987 2.66667 17.4933 2.66667 10.6667C2.66667 6.35467 5.664 2.708 9.224 2.66667C12.7813 2.9 13.2347 3.73467 16 6.50533C18.7587 3.74133 19.224 2.89733 22.7747 2.66667ZM22.548 0.00800006L22.5493 0C19.9907 0 17.6787 1.04667 16 2.73067C14.3213 1.04667 12.0093 0 9.45067 0L9.452 0.00800006C4.05867 -0.0853333 0 4.95867 0 10.6667C0 21.3333 15.9173 32 15.9173 32H16.0827C16.0827 32 32 21.3333 32 10.6667C32 4.95067 27.9347 -0.0853333 22.548 0.00800006Z" fill="white"/>
<path d="M22.548 0.00800006L22.5493 0C19.9907 0 17.6787 1.04667 16 2.73067C14.3213 1.04667 12.0093 0 9.45067 0L9.452 0.00800006C4.05867 -0.0853333 0 4.95867 0 10.6667C0 21.3333 15.9173 32 15.9173 32H16.0827C16.0827 32 32 21.3333 32 10.6667C32 4.95067 27.9347 -0.0853333 22.548 0.00800006Z" fill="white"/>
</svg>
