<svg width="32" height="32" viewBox="0 0 32 32" fill="none" xmlns="http://www.w3.org/2000/svg">
<path d="M16.0001 20.5L20.5001 16M20.5001 16L16.0001 11.5M20.5001 16H4.00012M11.5001 8.87288V8.8003C11.5001 7.12014 11.5001 6.27943 11.8271 5.6377C12.1147 5.07321 12.5733 4.61459 13.1378 4.32698C13.7795 4 14.6203 4 16.3004 4H23.2004C24.8806 4 25.7195 4 26.3612 4.32698C26.9257 4.61459 27.3859 5.07321 27.6734 5.6377C28.0001 6.2788 28.0001 7.11848 28.0001 8.79536V23.2054C28.0001 24.8823 28.0001 25.7207 27.6734 26.3618C27.3859 26.9263 26.9257 27.3857 26.3612 27.6733C25.7201 28 24.8816 28 23.2048 28H16.2955C14.6186 28 13.7789 28 13.1378 27.6733C12.5733 27.3857 12.1147 26.9259 11.8271 26.3614C11.5001 25.7197 11.5001 24.8801 11.5001 23.2V23.125" stroke="white" stroke-width="3" stroke-linecap="round" stroke-linejoin="round"/>
</svg>
