<svg width="32" height="32" viewBox="0 0 32 32" fill="none" xmlns="http://www.w3.org/2000/svg">
<path d="M20.4999 8.87288V8.8003C20.4999 7.12014 20.4999 6.27943 20.1729 5.6377C19.8853 5.07321 19.4267 4.61459 18.8622 4.32698C18.2205 4 17.3797 4 15.6996 4H8.79958C7.11943 4 6.28048 4 5.63878 4.32698C5.07433 4.61459 4.61413 5.07321 4.32658 5.6377C3.99988 6.2788 3.99988 7.11848 3.99988 8.79536V23.2054C3.99988 24.8823 3.99988 25.7208 4.32658 26.3619C4.61413 26.9263 5.07433 27.3857 5.63878 27.6733C6.27988 28 7.11838 28 8.79523 28H15.7045C17.3814 28 18.2211 28 18.8622 27.6733C19.4267 27.3857 19.8853 26.9259 20.1729 26.3614C20.4999 25.7197 20.4999 24.8801 20.4999 23.2V23.125" stroke="white" stroke-width="3" stroke-linecap="round" stroke-linejoin="round"/>
<path d="M23.5 20.5L28 16M28 16L23.5 11.5M28 16H11.5" stroke="white" stroke-width="3" stroke-linecap="round" stroke-linejoin="round"/>
</svg>
